<svg width="512" height="512" viewBox="0 0 512 512" fill="none" xmlns="http://www.w3.org/2000/svg">
  <rect width="512" height="512" rx="96" fill="#09090b"/>
  <g transform="scale(16) translate(8, 8)">
    <path d="m2 7 4.41-4.41A2 2 0 0 1 7.83 2h8.34a2 2 0 0 1 1.42.59L22 7" stroke="#4fd1c5" stroke-width="2" stroke-linecap="round" stroke-linejoin="round"/>
    <path d="M4 12v8a2 2 0 0 0 2 2h12a2 2 0 0 0 2-2v-8" stroke="#4fd1c5" stroke-width="2" stroke-linecap="round" stroke-linejoin="round"/>
    <path d="M15 22v-4a2 2 0 0 0-2-2h-2a2 2 0 0 0-2 2v4" stroke="#4fd1c5" stroke-width="2" stroke-linecap="round" stroke-linejoin="round"/>
    <path d="M2 7h20" stroke="#4fd1c5" stroke-width="2" stroke-linecap="round" stroke-linejoin="round"/>
    <path d="M22 7v3a2 2 0 0 1-2 2H4a2 2 0 0 1-2-2V7" stroke="#4fd1c5" stroke-width="2" stroke-linecap="round" stroke-linejoin="round"/>
  </g>
</svg>